<?xml version="1.0" encoding="iso-8859-1"?>
  <svg xmlns="http://www.w3.org/2000/svg" class="howit-svg" xmlns:xlink="http://www.w3.org/1999/xlink" version="1.1" id="Capa_1" x="0px" y="0px" viewBox="0 0 416.768 416.768" style="enable-background:new 0 0 416.768 416.768;" xml:space="preserve" width="512px"
                                height="512px"><g><g>
  <g>
    <path d="M207.639,0c-2.56,0-5.12,2.048-5.12,5.12l-0.512,26.112c0,3.072,2.56,5.12,5.12,5.12c3.072,0,5.12-2.048,5.12-5.12    l0.512-26.112C212.759,2.048,210.711,0,207.639,0z" data-original="#000000" class="active-path" data-old_color="#ff6b6b" fill="#ff6b6b"/>
  </g>
</g><g>
  <g>
    <path d="M247.575,23.552c-2.048-2.048-5.12-2.048-7.168,0l-18.944,17.92c-2.048,2.048-2.048,5.12,0,7.168    c1.024,1.024,2.048,1.536,3.584,1.536c1.024,0,2.56-0.512,3.584-1.536l18.944-17.92C249.623,28.672,249.623,25.6,247.575,23.552z" data-original="#000000" class="active-path" data-old_color="#ff6b6b" fill="#ff6b6b"/>
  </g>
</g><g>
  <g>
    <path d="M193.815,41.472l-18.944-17.92c-2.048-2.048-5.12-2.048-7.168,0c-2.048,2.048-2.048,5.12,0,7.168l18.944,17.92    c1.024,1.024,2.048,1.536,3.584,1.536s2.56-0.512,3.584-1.536C195.863,46.592,195.863,43.52,193.815,41.472z" data-original="#000000" class="active-path" data-old_color="#ff6b6b" fill="#ff6b6b"/>
  </g>
</g><g>
  <g>
    <path d="M390.423,392.704c-0.512-2.56-3.584-4.608-6.144-3.584l-32.256,7.68l-28.16-115.712    c28.672-12.8,38.4-70.656,22.016-136.192c-5.12-19.968-19.456-68.608-28.16-87.04c-1.024-2.048-3.584-3.072-5.632-2.56    l-92.16,22.528c-2.56,0.512-4.096,2.56-4.096,5.12c0.512,20.48,10.24,70.144,15.36,90.112c15.872,64,50.176,110.08,80.896,110.08    c0.512,0,1.024,0,2.048,0l28.16,115.712l-32.256,7.68c-2.56,0.512-4.608,3.584-3.584,6.144c0.512,2.56,2.56,4.096,5.12,4.096    c0.512,0,1.024,0,1.024,0l74.24-17.92C389.399,398.336,391.447,395.264,390.423,392.704z M226.583,86.016l83.968-20.48    c3.584,8.192,7.68,19.968,11.776,32.256l-91.136,21.504C229.143,106.496,227.095,94.72,226.583,86.016z M241.431,169.984    c-2.048-9.216-5.632-24.576-8.704-40.448l92.16-22.016c4.608,15.36,8.704,30.208,10.752,38.912    c15.36,62.464,6.656,119.808-18.944,125.952S256.279,231.936,241.431,169.984z" data-original="#000000" class="active-path" data-old_color="#ff6b6b" fill="#ff6b6b"/>
  </g>
</g><g>
  <g>
    <path d="M318.231,138.752c-0.512-2.56-3.072-4.096-6.144-3.584c-2.56,0.512-4.608,3.584-3.584,6.144    c11.264,45.056,9.216,83.456,4.608,94.72c-1.024,2.56,0,5.632,2.56,6.656c0.512,0.512,1.536,0.512,2.048,0.512    c2.048,0,4.096-1.024,4.608-3.072C327.959,226.816,330.007,186.88,318.231,138.752z" data-original="#000000" class="active-path" data-old_color="#ff6b6b" fill="#ff6b6b"/>
  </g>
</g><g>
  <g>
    <path d="M196.887,77.312l-92.16-22.528c-2.56-0.512-4.608,0.512-5.632,2.56c-8.704,18.432-23.04,67.072-28.16,87.04    c-16.384,66.048-6.144,123.904,22.016,136.192l-28.16,115.712l-32.256-7.68c-2.56-0.512-5.632,1.024-6.144,3.584    c-1.024,3.072,0.512,5.632,3.584,6.656l74.24,17.92c0.512,0,1.024,0,1.024,0c2.048,0,4.608-1.536,5.12-4.096    c0.512-2.56-1.024-5.632-3.584-6.144l-32.256-7.68l28.16-115.712c0.512,0,1.024,0,2.048,0c30.72,0,65.024-46.08,80.896-110.592    c5.12-19.968,14.848-70.144,15.36-90.112C200.983,79.872,199.447,77.824,196.887,77.312z M174.871,170.496    c-15.36,61.952-49.664,108.544-75.264,102.4c-25.088-6.656-34.304-64-18.944-125.952c2.048-9.216,6.144-24.064,10.752-38.912    l92.16,22.016C180.503,145.92,177.431,161.28,174.871,170.496z M185.623,119.296L94.487,97.792    c4.096-12.288,8.192-24.064,11.776-32.256l83.968,20.48C189.719,94.72,187.671,106.496,185.623,119.296z" data-original="#000000" class="active-path" data-old_color="#ff6b6b" fill="#ff6b6b"/>
  </g>
</g><g>
  <g>
    <path d="M104.727,135.68c-2.56-0.512-5.632,1.024-6.144,3.584c-11.776,48.128-9.216,88.064-4.096,101.376    c1.024,2.048,2.56,3.072,4.608,3.072c0.512,0,1.536,0,2.048-0.512c2.56-1.024,3.584-4.096,2.56-6.656    c-4.608-11.776-6.656-49.664,4.608-94.72C108.823,139.264,107.287,136.192,104.727,135.68z" data-original="#000000" class="active-path" data-old_color="#ff6b6b" fill="#ff6b6b"/>
  </g>
</g></g> </svg>